<svg id="Layer_1" enable-background="new 0 0 53 53" viewBox="0 0 53 53" xmlns="http://www.w3.org/2000/svg"><g id="_x35_1"><path d="m21.6635742 42.0141602h6.6162109c.5527344 0 1-.4477539 1-1s-.4472656-1-1-1h-6.6162109c-.5527344 0-1 .4477539-1 1s.4472656 1 1 1z"/><path d="m26.871582 17.8779297h-10.7333984c-.5527344 0-1 .4477539-1 1s.4472656 1 1 1h10.7333984c.5527344 0 1-.4477539 1-1s-.4472656-1-1-1z"/><path d="m27.7348633 23.3056641c0-.5522461-.4472656-1-1-1h-13.5c-.5527344 0-1 .4477539-1 1s.4472656 1 1 1h13.5c.5527344 0 1-.4477539 1-1z"/><path d="m21.6635742 28.7358398h3.0498047c.5527344 0 1-.4477539 1-1s-.4472656-1-1-1h-3.0498047c-.5527344 0-1 .4477539-1 1s.4472656 1 1 1z"/><path d="m21.6635742 33.1660156h2.6425781c.5527344 0 1-.4477539 1-1s-.4472656-1-1-1h-2.6425781c-.5527344 0-1 .4477539-1 1s.4472656 1 1 1z"/><path d="m21.6625977 37.5859375h3.6826172c.5527344 0 1-.4477539 1-1s-.4472656-1-1-1h-3.6826172c-.5527344 0-1 .4477539-1 1s.4472656 1 1 1z"/><path d="m21.5053711 2.5141602c-2.4423828 0-4.4296875 1.9916992-4.4296875 4.4399414l-.0185547.7568359c-.5737305.1103516-1.1052856.3205566-1.593811.5947266h-8.9296265c-1.5273438 0-2.7705078 1.2426758-2.7705078 2.7700195v36.6401367c0 1.5273438 1.2431641 2.7700195 2.7705078 2.7700195h29.7197266c1.6542969 0 3-1.3457031 3-3v-2.2700195c0-.5522461-.4472656-1-1-1s-1 .4477539-1 1v2.2700195c0 .5512695-.4482422 1-1 1h-29.7197266c-.4248047 0-.7705078-.3452148-.7705078-.7700195v-36.6401367c0-.4248047.3457031-.7700195.7705078-.7700195h6.8857422c-.3409433.5947294-.5898705 1.4193525-.6618042 2h-2.9944458c-1.1025496 0-2 .8969727-2 2v30.1801758c0 1.1030273.8974504 2 2 2h23.4902344c.9882813 0 1.8398438-.7387695 1.9804688-1.7182617.078125-.546875-.3017578-1.0522461-.8486328-1.1308594-.5419922-.0766602-1.0537109.3027344-1.1318359.8491211h-23.4902345v-30.1801758h3.4375c.3369722.38974.939292.6899414 1.5126953.6899414h13.5898438c.5822201 0 1.1755733-.2998428 1.5126953-.6899414h3.4375v3.5200195c0 .5522461.4472656 1 1 1s1-.4477539 1-1v-3.5200195c0-1.1030273-.8974609-2-2-2h-2.994873c-.0864429-.6789045-.3649769-1.4691343-.670166-2h6.8847656c.4306641 0 .7802734.3496094.7802734.7797852v6.1503906c0 .5522461.4472656 1 1 1s1-.4477539 1-1v-6.1503906c0-1.5327148-1.2470703-2.7797852-2.7802734-2.7797852h-8.9101563c-.4971313-.2783813-1.0377808-.4827271-1.6171875-.5908203v-.7607422c0-2.4482422-1.9873047-4.4399414-4.4404297-4.4399414zm6.7977295 10.4799804-13.5877686-.0200195c0-.0165405.0040283-.0321045.0042725-.048584.0230665-1.5693502 1.1780863-2.9549828 2.7154541-3.2507324.9501953-.1831055 1.640625-1.0078125 1.640625-1.9604492v-.7602539c0-1.3452148 1.0898438-2.4399414 2.4394531-2.4399414 1.3398438 0 2.4306641 1.0947266 2.4306641 2.4399414v.7607422c0 .9521484.6894531 1.7763672 1.6396484 1.9604492 1.4295674.2766905 2.7169438 1.5655336 2.7176514 3.3188476z"/><path d="m49.2368164 31.2207031c0-6.0556641-4.9257813-10.9819336-10.9814453-10.9819336s-10.9824219 4.9262695-10.9824219 10.9819336c0 5.9571648 4.8325272 10.9921875 10.9824219 10.9921875 6.0947609 0 10.9814453-4.9871559 10.9814453-10.9921875zm-10.9814453-8.9819336c4.9521484 0 8.9814453 4.0292969 8.9814453 8.9819336 0 1.8720703-.5953979 3.6920166-1.663208 5.1958008-.8162231-1.4598389-2.3622437-2.4316406-4.1512451-2.4316406h-.4052734c-.1484375 0-.2949219.0327148-.4287109.0966797-1.4472656.6850586-3.1611328.7001953-4.6611328-.0024414-.1328125-.0620117-.2773438-.0942383-.4238281-.0942383h-.4150391c-1.7897949 0-3.3359985.972168-4.1519165 2.4321899-1.0671387-1.5021973-1.6635132-3.3233032-1.6635132-5.1963501-.0000001-4.9526367 4.0292968-8.9819336 8.9824218-8.9819336zm-5.84198 15.7887574c.3151855-1.1920166 1.3927612-2.0426636 2.6749878-2.0426636h.2001953c1.9121094.8276367 4.0810547.8149414 5.9453125 0h.1884766c1.2822876 0 2.3589478.850708 2.6750488 2.0427856-1.6529732 1.4320297-3.706337 2.1852417-5.842041 2.1852417-2.0477638 0-4.1467857-.7172966-5.84198-2.1853637z"/><path d="m38.2602539 32.7573242c2.2714844 0 4.1191406-1.8540039 4.1191406-4.1333008 0-2.2714844-1.8476563-4.1191406-4.1191406-4.1191406-2.2792969 0-4.1337891 1.8476563-4.1337891 4.1191406 0 2.2792969 1.8544922 4.1333008 4.1337891 4.1333008zm0-6.2524414c1.1689453 0 2.1191406.9506836 2.1191406 2.1191406 0 1.1762695-.9501953 2.1333008-2.1191406 2.1333008-1.1767578 0-2.1337891-.9570313-2.1337891-2.1333008 0-1.168457.9570313-2.1191406 2.1337891-2.1191406z"/><path d="m16.3198242 35.5854492h-1.7431641c-1.2919922 0-2.34375 1.0512695-2.34375 2.34375v1.7426758c0 1.2924805 1.0517578 2.34375 2.34375 2.34375h1.7431641c1.2919922 0 2.34375-1.0512695 2.34375-2.34375v-1.7426758c0-1.2924804-1.0517578-2.34375-2.34375-2.34375zm.34375 4.0864258c0 .1894531-.1542969.34375-.34375.34375h-1.7431641c-.1894531 0-.34375-.1542969-.34375-.34375v-1.7426758c0-.1894531.1542969-.34375.34375-.34375h1.7431641c.1894531 0 .34375.1542969.34375.34375z"/><path d="m18.6635742 29.0795898c0-1.2924805-1.0517578-2.34375-2.34375-2.34375h-1.7431641c-1.2919922 0-2.34375 1.0512695-2.34375 2.34375v1.7426758c0 1.2924805 1.0517578 2.34375 2.34375 2.34375h1.7431641c1.2919922 0 2.34375-1.0512695 2.34375-2.34375zm-2 1.7426758c0 .1894531-.1542969.34375-.34375.34375h-1.7431641c-.1894531 0-.34375-.1542969-.34375-.34375v-1.7426758c0-.1894531.1542969-.34375.34375-.34375h1.7431641c.1894531 0 .34375.1542969.34375.34375z"/></g></svg>